<?xml version="1.0" encoding="utf-8"?>
<!-- Generator: Adobe Illustrator 24.3.0, SVG Export Plug-In . SVG Version: 6.00 Build 0)  -->
<svg version="1.1" id="Capa_1" xmlns="http://www.w3.org/2000/svg" xmlns:xlink="http://www.w3.org/1999/xlink" x="0px" y="0px"
	 viewBox="0 0 94.52 94.52" style="enable-background:new 0 0 94.52 94.52;" xml:space="preserve">
<style type="text/css">
	.st0{fill:#FFFFFF;}
	.st1{fill:#DF2A87;}
</style>
<g>
	<circle class="st0" cx="47.26" cy="47.26" r="46.64"/>
	<g>
		<g>
			<path class="st1" d="M63.19,68.76c-5.8-14.92-13.67-4.87-13.67-4.87l-0.79-4.09c2.7-6.1,6.35-12.81,8.5-23.36
				c2.1-10.36-2.38-23.72-2.38-23.72l-7.58,39.44l-7.58-39.44c0,0-4.49,13.37-2.38,23.72c2.14,10.55,5.79,17.26,8.5,23.36L45,63.89
				c0,0-7.87-10.05-13.67,4.87C27.45,78.75,37.79,86.2,42,78.81c2.19-3.85,3.81-10.32,5.26-14.96c1.45,4.65,3.07,11.12,5.26,14.96
				C56.73,86.2,67.08,78.75,63.19,68.76z M42.64,72.04c-1.27,4.1-4.21,6.84-6.57,6.11c-2.35-0.73-3.23-4.65-1.96-8.75
				c1.27-4.11,4.21-6.84,6.57-6.11C43.04,64.02,43.91,67.94,42.64,72.04z M47.23,60.17c-0.46,0-0.83-0.37-0.83-0.83
				c0-0.46,0.37-0.83,0.83-0.83c0.46,0,0.83,0.37,0.83,0.83C48.06,59.8,47.69,60.17,47.23,60.17z M58.45,78.15
				c-2.35,0.73-5.29-2.01-6.57-6.11c-1.27-4.1-0.39-8.02,1.96-8.75c2.35-0.73,5.29,2.01,6.57,6.11
				C61.68,73.51,60.8,77.42,58.45,78.15z"/>
		</g>
		<g>
			<path class="st1" d="M47.23,60.17c0.46,0,0.83-0.37,0.83-0.83c0-0.46-0.37-0.83-0.83-0.83c-0.46,0-0.83,0.37-0.83,0.83
				C46.4,59.8,46.77,60.17,47.23,60.17L47.23,60.17z"/>
		</g>
		<g>
			<path class="st0" d="M57.66,78.27c0.27,0,0.53-0.04,0.79-0.12c2.35-0.73,3.23-4.65,1.96-8.75c-1.13-3.66-3.59-6.23-5.78-6.23
				c-0.27,0-0.53,0.04-0.79,0.12c-2.35,0.73-3.23,4.65-1.96,8.75C53.02,75.7,55.47,78.27,57.66,78.27L57.66,78.27z"/>
		</g>
		<g>
			<path class="st0" d="M36.86,78.27c2.19,0,4.64-2.57,5.78-6.23c1.27-4.1,0.4-8.02-1.96-8.75c-0.26-0.08-0.52-0.12-0.79-0.12
				c-2.19,0-4.64,2.57-5.78,6.23c-1.27,4.11-0.4,8.02,1.96,8.75C36.33,78.23,36.59,78.27,36.86,78.27L36.86,78.27z"/>
		</g>
	</g>
</g>
</svg>
