<?xml version="1.0" encoding="utf-8"?>
<!-- Generator: Adobe Illustrator 24.3.0, SVG Export Plug-In . SVG Version: 6.00 Build 0)  -->
<svg version="1.1" id="Capa_1" xmlns="http://www.w3.org/2000/svg" xmlns:xlink="http://www.w3.org/1999/xlink" x="0px" y="0px"
	 viewBox="0 0 94.52 94.52" style="enable-background:new 0 0 94.52 94.52;" xml:space="preserve">
<style type="text/css">
	.st0{fill:#FFFFFF;}
	.st1{fill:#DF2A87;}
</style>
<g>
	<circle class="st0" cx="47.26" cy="47.26" r="46.64"/>
	<g>
		<path class="st1" d="M47.26,25.76c6.63-0.01,11.97-3.9,12.17-8.84l0.42,0.02c-0.7-0.32-1.4-0.66-2.09-1.02
			c0,0-2.54,7.04-10.51,7.06c-7.98,0.02-10.55-7.01-10.55-7.01c-0.68,0.37-1.39,0.71-2.08,1.03l0.42-0.02
			C35.27,21.92,40.63,25.78,47.26,25.76z"/>
		<path class="st1" d="M59.12,45.01c-0.08-0.36-0.15-0.71-0.22-1.07C58.97,44.3,59.04,44.66,59.12,45.01l-23.63,0.06
			c-1.2,5.41-3.6,11.16-4.27,17.94c-1.01,10.14-1.65,15.6-1.65,15.6l35.64-0.08c0,0-0.67-5.46-1.73-15.59
			C62.77,56.16,60.34,50.42,59.12,45.01z"/>
		<path class="st1" d="M60.3,17.14c-0.34,5.33-6.01,9.49-13.04,9.51c-7.02,0.02-12.72-4.12-13.08-9.45c-3.24,1.5-6.21,2.76-6.2,5.4
			l0.01,4.77c0,0,8.16,3.36,8.18,12.09l0,0.31c0,0,0,0,0,0l22.23-0.05c0.01,0.27,0.03,0.53,0.05,0.8c-0.02-0.27-0.04-0.54-0.04-0.81
			v-0.31c-0.02-8.73,8.13-12.13,8.13-12.13l-0.01-4.77C66.52,19.87,63.55,18.62,60.3,17.14z"/>
		<path class="st1" d="M35.77,43.66l23.07-0.05c0,0.01,0,0.03,0.01,0.04c-0.16-0.85-0.28-1.7-0.35-2.54c0,0.01,0,0.03,0,0.04
			l-22.4,0.05C36.03,42.01,35.92,42.83,35.77,43.66z"/>
	</g>
</g>
</svg>
